<?xml version="1.0" encoding="UTF-8"?>
<svg version="1.1" xmlns="http://www.w3.org/2000/svg" width="500" height="500">
<path d="M0 0 C0.8353125 0.20931152 1.670625 0.41862305 2.53125 0.63427734 C18.26247389 4.67283464 32.85956946 9.91975398 47 18 C48.32833489 18.67657125 49.65995834 19.34692223 51 20 C51 20.66 51 21.32 51 22 C51.515625 22.0825 52.03125 22.165 52.5625 22.25 C56.04455732 23.32140225 58.87200885 25.13523605 62 27 C62 27.66 62 28.32 62 29 C63.0828125 29.37125 63.0828125 29.37125 64.1875 29.75 C67.27606582 31.12269592 69.51011418 32.72353296 72 35 C72 35.66 72 36.32 72 37 C72.5887793 37.26425781 73.17755859 37.52851562 73.78417969 37.80078125 C76.08072584 39.04368944 77.60833166 40.35006481 79.453125 42.1875 C80.071875 42.80367187 80.690625 43.41984375 81.328125 44.0546875 C81.96234375 44.69664062 82.5965625 45.33859375 83.25 46 C83.8996875 46.64195312 84.549375 47.28390625 85.21875 47.9453125 C85.83234375 48.56148437 86.4459375 49.17765625 87.078125 49.8125 C87.63918945 50.37582031 88.20025391 50.93914062 88.77832031 51.51953125 C90 53 90 53 90 55 C90.66 55 91.32 55 92 55 C93.5078125 56.6796875 93.5078125 56.6796875 95.125 58.875 C95.66382813 59.59429687 96.20265625 60.31359375 96.7578125 61.0546875 C98 63 98 63 98 65 C98.66 65 99.32 65 100 65 C101.47703288 67.16039042 102.81524558 69.3025099 104.125 71.5625 C104.52460938 72.24795898 104.92421875 72.93341797 105.3359375 73.63964844 C106.1645626 75.06942007 106.98905756 76.50159266 107.80957031 77.93603516 C108.86603064 79.76772416 109.95789667 81.57889052 111.0546875 83.38671875 C130.43445249 116.89269797 136.16088109 161.92207657 126.36572266 199.42871094 C121.91643174 215.96004663 116.09356407 231.42079623 107 246 C106.61827637 246.61375488 106.23655273 247.22750977 105.84326172 247.85986328 C95.86622853 263.72739576 83.28706722 279.89423862 68 291 C67.34 291 66.68 291 66 291 C66 291.66 66 292.32 66 293 C63.78189024 294.65752191 61.5712277 296.18628487 59.25 297.6875 C58.56043213 298.13665771 57.87086426 298.58581543 57.16040039 299.04858398 C55.75776677 299.95645689 54.35225038 300.85989194 52.94384766 301.75878906 C51.32342347 302.79348343 49.71312913 303.84402057 48.10546875 304.8984375 C12.84083791 326.8936538 -31.88488669 331.91912857 -71.90625 322.93359375 C-94.4288876 317.53456635 -118.05245964 307.95091333 -136 293 C-136 292.34 -136 291.68 -136 291 C-136.57621094 290.7421875 -137.15242188 290.484375 -137.74609375 290.21875 C-140.19393785 288.8951324 -142.00637727 287.3699228 -144.0625 285.5 C-146.33432007 283.44184439 -148.43707257 281.70861829 -151 280 C-151 279.34 -151 278.68 -151 278 C-151.66 278 -152.32 278 -153 278 C-154.5859375 276.42578125 -154.5859375 276.42578125 -156.375 274.3125 C-156.99246094 273.58417969 -157.60992187 272.85585938 -158.24609375 272.10546875 C-158.82488281 271.41066406 -159.40367187 270.71585937 -160 270 C-160.804375 269.05125 -161.60875 268.1025 -162.4375 267.125 C-164 265 -164 265 -164 263 C-164.66 263 -165.32 263 -166 263 C-167.65752191 260.78189024 -169.18628487 258.5712277 -170.6875 256.25 C-171.13665771 255.56043213 -171.58581543 254.87086426 -172.04858398 254.16040039 C-172.95645689 252.75776677 -173.85989194 251.35225038 -174.75878906 249.94384766 C-175.79348343 248.32342347 -176.84402057 246.71312913 -177.8984375 245.10546875 C-187.13582116 230.2952973 -193.20011355 212.98347646 -197 196 C-197.16226074 195.29472168 -197.32452148 194.58944336 -197.49169922 193.86279297 C-202.16663569 172.63983578 -201.85512934 149.16147456 -197 128 C-196.81775879 127.20561523 -196.63551758 126.41123047 -196.44775391 125.59277344 C-190.72588254 101.35727817 -181.10559342 80.55995304 -166.20361328 60.61767578 C-165.20289191 59.27269002 -164.2356503 57.9028722 -163.27734375 56.52734375 C-162.85582031 56.02332031 -162.43429688 55.51929688 -162 55 C-161.34 55 -160.68 55 -160 55 C-159.79503906 54.47277344 -159.59007812 53.94554687 -159.37890625 53.40234375 C-157.39670746 49.94893793 -154.74605178 47.36331472 -151.9375 44.5625 C-151.32551758 43.95212891 -150.71353516 43.34175781 -150.08300781 42.71289062 C-140.33009093 33.20954663 -129.13454239 24.26135637 -117 18 C-116.36465332 17.67080566 -115.72930664 17.34161133 -115.07470703 17.00244141 C-80.48848497 -0.7002741 -38.38758372 -9.72588647 0 0 Z M-50.58203125 77.05859375 C-58.50753431 86.69979538 -61.33160143 96.07842382 -61.1953125 108.30859375 C-61.19106766 109.75867577 -61.19106766 109.75867577 -61.18673706 111.23805237 C-61.17560407 114.30466452 -61.15051224 117.37097715 -61.125 120.4375 C-61.11496131 122.52538639 -61.10583701 124.61327738 -61.09765625 126.70117188 C-61.07739477 131.80098755 -61.03823286 136.90016122 -61 142 C-72.22 142 -83.44 142 -95 142 C-95 155.2 -95 168.4 -95 182 C-83.78 182 -72.56 182 -61 182 C-61 214.67 -61 247.34 -61 281 C-47.14 281 -33.28 281 -19 281 C-19 248.33 -19 215.66 -19 182 C-8.44 182 2.12 182 13 182 C14.00823638 176.33467178 15.00984253 170.66848541 16 165 C16.14405273 164.17790039 16.28810547 163.35580078 16.43652344 162.50878906 C16.85830675 160.08999089 17.27379004 157.67019073 17.6875 155.25 C17.81874268 154.50057129 17.94998535 153.75114258 18.08520508 152.97900391 C18.7223598 149.214193 19 145.84672141 19 142 C6.46 142 -6.08 142 -19 142 C-18.9175 136.72 -18.835 131.44 -18.75 126 C-18.73420898 124.35 -18.71841797 122.7 -18.70214844 121 C-18.56688875 113.53757112 -18.36717931 107.33841988 -14 101 C-7.21053905 95.11580051 1.38628228 95.79444012 9.9375 95.4375 C13.258125 95.293125 16.57875 95.14875 20 95 C20 84.11 20 73.22 20 62 C12.57630956 60.14407739 6.26873318 59.66026722 -1.24389648 59.68432617 C-3.29790816 59.68747761 -5.35046326 59.66399749 -7.40429688 59.63867188 C-24.52845138 59.55518984 -38.66576796 64.42013268 -50.58203125 77.05859375 Z " fill="#7E7E7E" transform="translate(285,88)"/>
<path d="M0 0 C4.455 0.99 4.455 0.99 9 2 C9 2.33 9 2.66 9 3 C5.7 3.66 2.4 4.32 -1 5 C-0.67 3.35 -0.34 1.7 0 0 Z " fill="#929090" transform="translate(253,147)"/>
<path d="M0 0 C0.33 0.66 0.66 1.32 1 2 C1.99 2.33 2.98 2.66 4 3 C4 3.66 4 4.32 4 5 C4.99 5.33 5.98 5.66 7 6 C7 6.66 7 7.32 7 8 C5 7 3 6 1 5 C1 4.34 1 3.68 1 3 C0.34 3 -0.32 3 -1 3 C-0.67 2.01 -0.34 1.02 0 0 Z " fill="#979495" transform="translate(148,376)"/>
<path d="M0 0 C4.05606165 0.46800711 7.46588679 0.87953208 11 3 C7.70303895 4.09898702 6.59505097 3.87124444 3.3125 3.0625 C2.10013672 2.77052734 2.10013672 2.77052734 0.86328125 2.47265625 C-0.05904297 2.23869141 -0.05904297 2.23869141 -1 2 C-0.67 1.34 -0.34 0.68 0 0 Z " fill="#969596" transform="translate(286,89)"/>
<path d="M0 0 C0.75 1.75 0.75 1.75 1 4 C-0.9375 6.25 -0.9375 6.25 -3 8 C-3 3.73173127 -2.62386487 3.06117568 0 0 Z " fill="#999999" transform="translate(121,146)"/>
<path d="M0 0 C2.78637633 4.1795645 1.79562512 6.14668677 1 11 C-0.98362069 8.08291076 -0.9876191 6.87619096 -0.625 3.25 C-0.41875 2.1775 -0.2125 1.105 0 0 Z " fill="#989192" transform="translate(89,277)"/>
<path d="M0 0 C-1.32 1.32 -2.64 2.64 -4 4 C-4.33 3.01 -4.66 2.02 -5 1 C-5.66 0.67 -6.32 0.34 -7 0 C-4.3333581 -1.33332095 -2.83319697 -0.67102033 0 0 Z " fill="#898889" transform="translate(368,364)"/>
</svg>
