<?xml version="1.0" encoding="UTF-8"?>
<svg version="1.1" xmlns="http://www.w3.org/2000/svg" width="512" height="512">
<path d="M0 0 C168.96 0 337.92 0 512 0 C512 168.96 512 337.92 512 512 C343.04 512 174.08 512 0 512 C0 343.04 0 174.08 0 0 Z " fill="#E63A3D" transform="translate(0,0)"/>
<path d="M0 0 C2.26468415 -0.00067637 4.52936822 -0.00164915 6.79405212 -0.00289917 C11.51464537 -0.0043626 16.23521954 -0.00226703 20.95581055 0.00244141 C26.92654234 0.0081147 32.89722891 0.00486617 38.86795902 -0.00113106 C43.53989485 -0.00479338 48.21182046 -0.00357208 52.88375664 -0.00100327 C55.08118127 -0.00034835 57.2786069 -0.00111048 59.47603035 -0.00348282 C147.82501595 -0.07792391 147.82501595 -0.07792391 181.34765625 33.38671875 C214.33886927 68.51265732 207.27942993 124.90045592 207.27514648 169.17749023 C207.27506526 173.59712824 207.2820193 178.01666251 207.2956543 182.4362793 C207.4237394 224.73749301 207.4237394 224.73749301 206.265625 245.27734375 C206.19627243 246.57161789 206.12691986 247.86589203 206.0554657 249.1993866 C204.4376118 273.97615073 198.09498494 298.36417519 181.08984375 317.1328125 C180.3525 317.96296875 179.61515625 318.793125 178.85546875 319.6484375 C155.23457632 344.81317911 121.43335658 349.12338062 88.65921783 350.25082779 C80.19142285 350.43827348 71.72338839 350.43879273 63.25390625 350.43359375 C61.23813916 350.43592051 59.22237626 350.43942534 57.20661104 350.4430005 C50.8981391 350.45396413 44.58972676 350.45460813 38.28125 350.44848633 C31.86406331 350.44245305 25.44709623 350.45477194 19.02994692 350.4760564 C13.43414894 350.49390505 7.83841938 350.49963805 2.24259412 350.49641865 C-1.06172765 350.4946427 -4.36577035 350.4982638 -7.67008591 350.51113319 C-28.62314832 350.58276874 -49.37210598 349.55206481 -69.91015625 345.1328125 C-70.84085937 344.94460938 -71.7715625 344.75640625 -72.73046875 344.5625 C-94.09734666 339.41996328 -114.35997009 324.2297157 -126.359375 305.91796875 C-134.16108822 291.90632762 -139.30940615 276.78042924 -141.13671875 260.8515625 C-141.22070545 260.13440567 -141.30469215 259.41724884 -141.39122391 258.67835999 C-144.20336476 233.60871275 -143.43512713 208.2123484 -143.31135011 183.02035141 C-143.28469212 177.32973045 -143.27994897 171.63926388 -143.28124845 165.94858885 C-143.28261935 158.99509969 -143.26864743 152.04169793 -143.25035524 145.08823586 C-143.24618257 143.14296923 -143.2449975 141.19769693 -143.24387741 139.25242615 C-143.22780168 125.94724937 -142.9632552 112.71343127 -142.00244141 99.43945312 C-141.92369467 98.34592278 -141.84494793 97.25239243 -141.76381493 96.12572479 C-139.91577765 72.99836949 -132.59226742 50.67163992 -116.91015625 33.1328125 C-116.17152344 32.30007812 -115.43289062 31.46734375 -114.671875 30.609375 C-85.1685865 -0.77710213 -39.81749569 -0.0426645 0 0 Z " fill="#EC2425" transform="translate(223.91015625,80.8671875)"/>
<path d="M0 0 C2.26468415 -0.00067637 4.52936822 -0.00164915 6.79405212 -0.00289917 C11.51464537 -0.0043626 16.23521954 -0.00226703 20.95581055 0.00244141 C26.92654234 0.0081147 32.89722891 0.00486617 38.86795902 -0.00113106 C43.53989485 -0.00479338 48.21182046 -0.00357208 52.88375664 -0.00100327 C55.08118127 -0.00034835 57.2786069 -0.00111048 59.47603035 -0.00348282 C147.82501595 -0.07792391 147.82501595 -0.07792391 181.34765625 33.38671875 C214.33886927 68.51265732 207.27942993 124.90045592 207.27514648 169.17749023 C207.27506526 173.59712824 207.2820193 178.01666251 207.2956543 182.4362793 C207.4237394 224.73749301 207.4237394 224.73749301 206.265625 245.27734375 C206.19627243 246.57161789 206.12691986 247.86589203 206.0554657 249.1993866 C204.4376118 273.97615073 198.09498494 298.36417519 181.08984375 317.1328125 C180.3525 317.96296875 179.61515625 318.793125 178.85546875 319.6484375 C155.23457632 344.81317911 121.43335658 349.12338062 88.65921783 350.25082779 C80.19142285 350.43827348 71.72338839 350.43879273 63.25390625 350.43359375 C61.23813916 350.43592051 59.22237626 350.43942534 57.20661104 350.4430005 C50.8981391 350.45396413 44.58972676 350.45460813 38.28125 350.44848633 C31.86406331 350.44245305 25.44709623 350.45477194 19.02994692 350.4760564 C13.43414894 350.49390505 7.83841938 350.49963805 2.24259412 350.49641865 C-1.06172765 350.4946427 -4.36577035 350.4982638 -7.67008591 350.51113319 C-28.62314832 350.58276874 -49.37210598 349.55206481 -69.91015625 345.1328125 C-70.84085937 344.94460938 -71.7715625 344.75640625 -72.73046875 344.5625 C-94.09734666 339.41996328 -114.35997009 324.2297157 -126.359375 305.91796875 C-134.16108822 291.90632762 -139.30940615 276.78042924 -141.13671875 260.8515625 C-141.22070545 260.13440567 -141.30469215 259.41724884 -141.39122391 258.67835999 C-144.20336476 233.60871275 -143.43512713 208.2123484 -143.31135011 183.02035141 C-143.28469212 177.32973045 -143.27994897 171.63926388 -143.28124845 165.94858885 C-143.28261935 158.99509969 -143.26864743 152.04169793 -143.25035524 145.08823586 C-143.24618257 143.14296923 -143.2449975 141.19769693 -143.24387741 139.25242615 C-143.22780168 125.94724937 -142.9632552 112.71343127 -142.00244141 99.43945312 C-141.92369467 98.34592278 -141.84494793 97.25239243 -141.76381493 96.12572479 C-139.91577765 72.99836949 -132.59226742 50.67163992 -116.91015625 33.1328125 C-116.17152344 32.30007812 -115.43289062 31.46734375 -114.671875 30.609375 C-85.1685865 -0.77710213 -39.81749569 -0.0426645 0 0 Z M-92.40234375 52.43359375 C-113.80992669 75.47508879 -111.07180716 108.53141759 -111.07741332 137.68612003 C-111.07813315 139.79734869 -111.08028463 141.90857118 -111.08291054 144.01979828 C-111.09210808 151.43035788 -111.09625235 158.84089972 -111.09545898 166.25146484 C-111.09485915 173.08719577 -111.10540714 179.92284757 -111.12120265 186.75855851 C-111.13440428 192.68958083 -111.13963769 198.62057768 -111.13900357 204.55161452 C-111.13875234 208.06652493 -111.14139093 211.58136472 -111.15218163 215.09626007 C-111.18869738 227.91756619 -111.16491756 240.69120223 -110.0402832 253.47167969 C-109.96532466 254.33207478 -109.89036612 255.19246986 -109.8131361 256.07893753 C-108.11663377 272.83915573 -101.40104723 290.22481229 -88.40722656 301.42871094 C-81.49732497 306.92338284 -74.3209626 310.53139323 -65.91015625 313.1328125 C-65.24798096 313.4453598 -64.58580566 313.7579071 -63.90356445 314.07992554 C-46.42855092 320.22650251 -25.69292131 318.58610555 -7.40084457 318.53578901 C-3.67257879 318.52801987 0.05566854 318.53528451 3.78393555 318.53994751 C10.03666238 318.54535621 16.28928179 318.5383439 22.54199219 318.52392578 C29.69937218 318.5076088 36.85649549 318.51290082 44.01386929 318.529405 C50.23635471 318.54316133 56.45876434 318.54487156 62.68126011 318.53708899 C66.36383307 318.53248899 70.04628675 318.53156872 73.72885132 318.54169846 C117.86354012 319.0597969 117.86354012 319.0597969 155.83984375 298.8828125 C172.50055279 280.94664248 175.24393816 256.26847557 175.23510742 232.86230469 C175.23846603 231.56969727 175.24182465 230.27708984 175.24528503 228.9453125 C175.25405639 225.42387384 175.25646044 221.90245954 175.25710082 218.38101101 C175.25781607 216.16864971 175.25995945 213.95629442 175.26259804 211.74393463 C175.27183394 203.9897676 175.27593577 196.23561766 175.27514648 188.48144531 C175.27454852 181.31414891 175.28504925 174.14692845 175.30089015 166.97965121 C175.31408902 160.78127662 175.31932517 154.58292643 175.31869107 148.38453794 C175.31843936 144.70295361 175.32110442 141.02143665 175.33186913 137.33986664 C176.42686658 91.03470561 176.42686658 91.03470561 155.48046875 51.3515625 C151.6390604 47.78633384 147.55086586 44.86959087 143.08984375 42.1328125 C142.49171875 41.74480469 141.89359375 41.35679688 141.27734375 40.95703125 C119.8816413 28.58764077 88.35130917 31.97016318 64.77313733 31.96555543 C62.69357818 31.96483503 60.61402527 31.96268262 58.5344677 31.96005821 C51.23643461 31.95086802 43.93841954 31.94671572 36.64038086 31.94750977 C29.90513145 31.9481104 23.16996214 31.93754486 16.43473297 31.9217661 C10.59119443 31.90857831 4.74768175 31.90333045 -1.09587151 31.90396518 C-4.55928364 31.90421668 -8.02262414 31.90156219 -11.48602104 31.89078712 C-55.27048313 31.44038613 -55.27048313 31.44038613 -92.40234375 52.43359375 Z " fill="#FEFCFC" transform="translate(223.91015625,80.8671875)"/>
<path d="M0 0 C20.05060954 16.35898107 32.89900556 37.90667346 35.66503906 63.88720703 C37.39347511 87.10151634 29.91376285 110.4536054 15.27734375 128.3984375 C13.06867725 130.9304185 10.79333453 133.35463805 8.4375 135.75 C7.68984375 136.51054687 6.9421875 137.27109375 6.171875 138.0546875 C-10.13038339 153.65519304 -32.00554777 161.52991938 -54.4375 162.125 C-81.35188027 161.39013637 -103.96993009 150.64008041 -122.56640625 131.1796875 C-138.38850853 113.72187029 -145.52546163 90.36722798 -144.96875 67.078125 C-143.07539856 41.92021772 -131.95153771 19.91793607 -113.14599609 3.08349609 C-80.47803659 -24.42689472 -34.1395755 -25.25724347 0 0 Z " fill="#FEFCFC" transform="translate(310.5625,184.25)"/>
<path d="M0 0 C0.79921875 -0.00773438 1.5984375 -0.01546875 2.421875 -0.0234375 C18.42524627 0.02835335 31.99993295 6.64081659 43.80859375 17.203125 C52.4557193 26.0356665 58.81779299 38.87867522 59.625 51.25 C59.74488281 52.84521484 59.74488281 52.84521484 59.8671875 54.47265625 C60.49539197 70.86140232 55.62871472 85.51279675 44.9375 98 C34.60000322 108.84741814 21.1383204 115.57655494 6.15234375 116.453125 C-12.49943863 116.69667385 -27.31001197 112.01003217 -40.93359375 98.921875 C-52.22710437 86.56225698 -56.91351686 71.63154849 -56.6171875 55.15234375 C-55.57149395 38.30318485 -48.86134458 24.64265017 -36.375 13.25 C-25.49495724 5.00940344 -13.71837961 -0.13148607 0 0 Z " fill="#F00C10" transform="translate(254.375,197.75)"/>
<path d="M0 0 C6.20007739 3.47204334 10.02512207 6.86954891 12.125 13.75 C13.12982993 20.67216173 12.83398982 26.33679632 8.6171875 32.06640625 C3.89587225 37.39333523 -0.83414953 40.70560997 -8.0625 41.1875 C-14.32867952 41.02012292 -20.15108147 38.54392578 -24.546875 34.03515625 C-25.81877606 32.32557159 -26.87605123 30.63011756 -27.875 28.75 C-28.5246875 27.5434375 -28.5246875 27.5434375 -29.1875 26.3125 C-30.72954496 20.56487789 -30.30990896 15.16835571 -28.05859375 9.70703125 C-22.09944391 -0.1462165 -10.77954576 -4.33550961 0 0 Z " fill="#FEFAFC" transform="translate(357.875,143.25)"/>
</svg>
