<?xml version="1.0" encoding="UTF-8"?>
<svg version="1.1" xmlns="http://www.w3.org/2000/svg" width="500" height="500">
<path d="M0 0 C0.73927734 0.17160645 1.47855469 0.34321289 2.24023438 0.52001953 C17.93988825 4.28995788 33.03797542 9.85968603 47 18 C48.32785067 18.67752108 49.65940187 19.34806529 51 20 C51 20.66 51 21.32 51 22 C51.59095459 22.11931885 52.18190918 22.2386377 52.79077148 22.36157227 C55.06951048 23.02008729 56.44691084 23.82017916 58.34765625 25.21484375 C59.25547852 25.87323242 59.25547852 25.87323242 60.18164062 26.54492188 C60.80232422 27.00447266 61.42300781 27.46402344 62.0625 27.9375 C63.30318327 28.84272505 64.54406177 29.74768257 65.78515625 30.65234375 C67.37650391 31.81443359 67.37650391 31.81443359 69 33 C69.99 33.66 70.98 34.32 72 35 C72 35.66 72 36.32 72 37 C72.804375 37.3403125 72.804375 37.3403125 73.625 37.6875 C76.82460161 39.45570089 79.29037223 41.53670203 82 44 C82 44.66 82 45.32 82 46 C82.66 46 83.32 46 84 46 C85.5078125 47.4609375 85.5078125 47.4609375 87.125 49.375 C87.66382813 50.00148437 88.20265625 50.62796875 88.7578125 51.2734375 C90 53 90 53 90 55 C90.66 55 91.32 55 92 55 C92 55.66 92 56.32 92 57 C92.66 57 93.32 57 94 57 C98 62.41176471 98 62.41176471 98 65 C98.66 65 99.32 65 100 65 C116.10687359 86.25556652 125.02818661 111.82603552 129 138 C129.18304688 139.14726562 129.36609375 140.29453125 129.5546875 141.4765625 C133.65729084 175.78473789 127.10321537 210.93878205 110 241 C109.36320312 242.1240625 108.72640625 243.248125 108.0703125 244.40625 C100.5071051 257.1634673 91.24765968 268.32840005 81 279 C80.47229004 279.55397461 79.94458008 280.10794922 79.40087891 280.67871094 C75.1484452 285.05326458 70.62142051 288.83482019 65.75 292.5 C64.99912109 293.06678467 64.24824219 293.63356934 63.47460938 294.2175293 C27.32122438 321.28205278 -17.60429068 330.35657072 -62 324 C-88.07510535 319.58342923 -110.15726521 309.54359813 -132 295 C-132.85827393 294.46342773 -132.85827393 294.46342773 -133.73388672 293.91601562 C-135.18910174 292.99442203 -136.59934588 292.00257347 -138 291 C-138 290.34 -138 289.68 -138 289 C-138.87978516 288.59587891 -138.87978516 288.59587891 -139.77734375 288.18359375 C-148.58788105 283.49186651 -158.55989988 273.29570085 -164 265 C-164 264.34 -164 263.68 -164 263 C-164.66 263 -165.32 263 -166 263 C-167.53299543 261.05137909 -168.93342932 259.11640499 -170.3125 257.0625 C-170.71839355 256.46493896 -171.12428711 255.86737793 -171.54248047 255.25170898 C-174.64537828 250.63464177 -177.45359617 245.94775934 -180 241 C-180.53109375 240.02289063 -181.0621875 239.04578125 -181.609375 238.0390625 C-189.3799219 223.28877657 -194.609849 207.30338948 -198 191 C-198.22558594 189.92105469 -198.45117188 188.84210938 -198.68359375 187.73046875 C-205.94801385 144.69504208 -194.09117094 103.37429554 -171.515625 67.01953125 C-171.01546875 66.35308594 -170.5153125 65.68664062 -170 65 C-169.34 65 -168.68 65 -168 65 C-167.7525 64.278125 -167.505 63.55625 -167.25 62.8125 C-165.87730408 59.72393418 -164.27646704 57.48988582 -162 55 C-161.34 55 -160.68 55 -160 55 C-159.59164917 54.10595459 -159.59164917 54.10595459 -159.17504883 53.19384766 C-157.29320832 49.680401 -154.50090114 47.1623651 -151.6875 44.375 C-151.06230469 43.75471924 -150.43710938 43.13443848 -149.79296875 42.49536133 C-127.51566075 20.76544181 -99.14335101 6.99709434 -69 0 C-68.29423828 -0.16516113 -67.58847656 -0.33032227 -66.86132812 -0.50048828 C-45.55570634 -5.2301798 -21.232941 -4.96889601 0 0 Z M-119 81 C-121.6341501 84.17513678 -123.87060808 87.46999201 -126 91 C-126.39960938 91.63421875 -126.79921875 92.2684375 -127.2109375 92.921875 C-134.37477478 105.52591954 -133.43267848 120.82142611 -133.36328125 134.796875 C-133.36276134 136.88283284 -133.36328408 138.96879117 -133.36479187 141.05474854 C-133.36470271 145.40164617 -133.35438529 149.74835618 -133.33618164 154.09521484 C-133.31343992 159.64511292 -133.31296682 165.19473895 -133.31969929 170.74467087 C-133.32305154 175.04283026 -133.31638647 179.34092848 -133.30657005 183.63907623 C-133.30274369 185.6850477 -133.3015591 187.731026 -133.3031559 189.77700043 C-133.30352981 192.64020108 -133.29081764 195.50306177 -133.2746582 198.36621094 C-133.27713562 199.19658371 -133.27961304 200.02695648 -133.28216553 200.88249207 C-133.14641336 216.07448126 -127.2839419 227.57408715 -119 240 C-118.34 240 -117.68 240 -117 240 C-117 240.66 -117 241.32 -117 242 C-116.34 242 -115.68 242 -115 242 C-115 242.66 -115 243.32 -115 244 C-99.2791266 258.08845765 -79.15386704 258.31319325 -59.30859375 258.265625 C-57.31185357 258.2669752 -55.3151137 258.26891867 -53.31837463 258.27142334 C-49.15207766 258.27435723 -44.98586696 258.27013268 -40.81958008 258.26074219 C-35.50514334 258.24934131 -30.19090853 258.25592229 -24.87647915 258.26788712 C-20.75928756 258.27514641 -16.64214311 258.27279929 -12.52495003 258.26763153 C-10.56632526 258.26630666 -8.60769607 258.26790153 -6.64907646 258.27259064 C13.51916963 258.31029592 27.99216461 255.33855692 45 244 C45 243.34 45 242.68 45 242 C45.66 242 46.32 242 47 242 C47 241.34 47 240.68 47 240 C47.66 240 48.32 240 49 240 C62.00449963 222.8745299 63.32069008 204.78996237 63.265625 183.8828125 C63.26697636 182.05402576 63.26892079 180.22523938 63.27142334 178.39645386 C63.27435396 174.58246404 63.2701449 170.76856859 63.26074219 166.95458984 C63.24936528 162.10802733 63.25590924 157.26168686 63.26788712 152.41513252 C63.27517573 148.64348736 63.27278569 144.87189328 63.26763153 141.10024643 C63.26631346 139.315184 63.26787675 137.53011666 63.27259064 135.74505997 C63.3141447 115.58933802 62.44229527 95.6795265 48 80 C30.80905052 64.93767414 14.26830311 63.52965454 -7.72265625 63.6015625 C-9.91735429 63.59953729 -12.11205168 63.59662215 -14.30674744 63.59286499 C-18.88661156 63.58846362 -23.46629912 63.59480252 -28.04614258 63.60888672 C-33.88851744 63.62598725 -39.730479 63.61611769 -45.57283878 63.59816933 C-50.09841474 63.58728087 -54.62389418 63.59080082 -59.14947319 63.5985527 C-61.30264778 63.60054021 -63.45583141 63.59814698 -65.60899544 63.59111404 C-86.00523864 63.53909093 -103.71190526 66.05635107 -119 81 Z " fill="#7B7B7B" transform="translate(285,88)"/>
<path d="M0 0 C0.88272583 -0.00350464 1.76545166 -0.00700928 2.67492676 -0.01062012 C5.55940893 -0.01933968 8.44364083 -0.01362312 11.328125 -0.00683594 C13.35253954 -0.0081854 15.37695375 -0.01012827 17.40136719 -0.01263428 C21.63089096 -0.01557231 25.86032989 -0.01133053 30.08984375 -0.00195312 C35.48963171 0.00944055 40.88922079 0.00287399 46.28900146 -0.00909805 C50.46534705 -0.01635239 54.64164611 -0.01401235 58.81799316 -0.00884247 C60.8081464 -0.00751585 62.79830398 -0.00911876 64.78845215 -0.01380157 C67.57783067 -0.01892586 70.36689468 -0.01107443 73.15625 0 C73.96485474 -0.00404846 74.77345947 -0.00809692 75.60656738 -0.01226807 C87.71708215 0.07604237 98.29823277 2.97204197 107.328125 11.32128906 C116.15678506 20.68217331 118.72226885 30.73502817 118.73925781 43.19482422 C118.74422272 44.07375336 118.74918762 44.9526825 118.75430298 45.85824585 C118.7688599 48.75478919 118.77571678 51.65127771 118.78125 54.54785156 C118.78549107 56.03962481 118.78549107 56.03962481 118.78981781 57.56153488 C118.80478658 62.82732151 118.81402987 68.09308092 118.81835938 73.35888672 C118.82383196 78.77208656 118.8478411 84.18503334 118.87633133 89.59815407 C118.89504941 93.78315941 118.90016823 97.968105 118.90169525 102.15314865 C118.90470303 104.14724481 118.91266741 106.1413404 118.92588043 108.13539505 C119.0833266 133.72890829 119.0833266 133.72890829 112.515625 144.00878906 C112.00902344 144.82863281 111.50242187 145.64847656 110.98046875 146.49316406 C110.51769531 147.07582031 110.05492187 147.65847656 109.578125 148.25878906 C108.918125 148.25878906 108.258125 148.25878906 107.578125 148.25878906 C107.248125 149.24878906 106.918125 150.23878906 106.578125 151.25878906 C105.918125 151.25878906 105.258125 151.25878906 104.578125 151.25878906 C104.578125 151.91878906 104.578125 152.57878906 104.578125 153.25878906 C103.27183173 154.04009449 101.95759673 154.80812083 100.640625 155.57128906 C99.54427734 156.21517578 99.54427734 156.21517578 98.42578125 156.87207031 C91.10610911 160.43651971 84.56870912 161.7036392 76.45947266 161.6628418 C75.00633919 161.67313667 75.00633919 161.67313667 73.52384949 161.68363953 C70.34647637 161.70182282 67.16960109 161.69808176 63.9921875 161.69238281 C61.76695599 161.69694893 59.54172588 161.70225578 57.3164978 161.70826721 C52.66146095 161.71718193 48.00659581 161.71479411 43.3515625 161.70483398 C37.40800236 161.69335149 31.465037 161.7135537 25.52155495 161.74275112 C20.92823568 161.76116341 16.3350576 161.76081053 11.74171066 161.7551136 C9.55141745 161.75496098 7.36111431 161.76095628 5.17085648 161.77340508 C-9.73426417 161.84618956 -22.53062562 161.3775692 -34.421875 151.25878906 C-43.69811816 141.53136676 -45.56465861 131.48423104 -45.58300781 118.39282227 C-45.58797272 117.53325424 -45.59293762 116.67368622 -45.59805298 115.78807068 C-45.61258271 112.96189555 -45.61946164 110.13577656 -45.625 107.30957031 C-45.62782738 106.33803701 -45.63065475 105.36650372 -45.63356781 104.36553001 C-45.64852421 99.22293199 -45.65777575 94.08036175 -45.66210938 88.93774414 C-45.66758498 83.65348584 -45.69160408 78.36948637 -45.72008133 73.08530903 C-45.73880136 68.99724102 -45.7439183 64.90923417 -45.74544525 60.82112694 C-45.7484518 58.87447891 -45.7564119 56.92783144 -45.76963043 54.98122597 C-45.87064511 38.96061649 -45.3006961 24.22845939 -33.734375 12.07128906 C-23.71956675 2.52569584 -13.59692492 -0.06807607 0 0 Z M80.578125 20.25878906 C78.12402142 23.93994443 78.34524657 25.91172504 78.578125 30.25878906 C78.908125 31.24878906 79.238125 32.23878906 79.578125 33.25878906 C80.238125 33.25878906 80.898125 33.25878906 81.578125 33.25878906 C81.578125 33.91878906 81.578125 34.57878906 81.578125 35.25878906 C84.72080042 37.35390601 87.8450471 37.80884383 91.6015625 37.69628906 C94.46195272 37.06315921 96.12920323 35.47137007 97.8125 33.12597656 C99.22771905 29.67457501 98.37802693 26.82758228 97.578125 23.25878906 C96.918125 23.25878906 96.258125 23.25878906 95.578125 23.25878906 C95.330625 22.29972656 95.330625 22.29972656 95.078125 21.32128906 C93.60894938 18.82662373 93.60894938 18.82662373 89.765625 18.38378906 C86.21525411 18.11316188 83.71057179 18.4161733 80.578125 20.25878906 Z M17.578125 34.25878906 C16.89878906 34.53722656 16.21945313 34.81566406 15.51953125 35.10253906 C3.32722049 40.6164106 -4.71701157 50.31029989 -10.6328125 62.11425781 C-14.96967264 73.90107076 -15.32792069 87.87619316 -10.66796875 99.59863281 C-3.7161042 114.43944709 6.36948452 124.3384092 21.578125 130.25878906 C34.52696891 134.37718928 48.1706327 132.73477108 60.203125 126.63378906 C65.94981642 123.3045559 71.07367838 119.144306 75.578125 114.25878906 C75.578125 113.59878906 75.578125 112.93878906 75.578125 112.25878906 C76.238125 112.25878906 76.898125 112.25878906 77.578125 112.25878906 C78.71464842 110.26531483 79.83678877 108.26363779 80.953125 106.25878906 C81.57960938 105.14503906 82.20609375 104.03128906 82.8515625 102.88378906 C88.39443565 92.00250523 88.23768822 77.79581737 84.953125 66.25878906 C79.56928334 51.35975503 70.29088508 41.59949521 56.19970703 34.68212891 C44.78621801 29.35021854 29.16520713 29.23411046 17.578125 34.25878906 Z " fill="#7C7C7C" transform="translate(213.421875,167.7412109375)"/>
<path d="M0 0 C7.47316954 6.92674424 10.75984967 15.06855103 11.19140625 25.24609375 C10.77422319 34.99774776 6.83464789 43.39441418 0.15234375 50.4375 C-8.46076615 58.28368916 -17.0026972 60.08470836 -28.41015625 59.90234375 C-37.61982865 59.3684497 -44.50956283 55.72217762 -50.80859375 48.99609375 C-57.46862286 40.98048349 -59.30205759 33.05576121 -59.18359375 22.68359375 C-58.42089539 15.69023652 -55.03199901 9.45620165 -51.18359375 3.68359375 C-50.52359375 3.68359375 -49.86359375 3.68359375 -49.18359375 3.68359375 C-48.99796875 3.12671875 -48.81234375 2.56984375 -48.62109375 1.99609375 C-44.73264799 -4.25923204 -37.93307234 -6.46512069 -31.18359375 -8.31640625 C-30.37921875 -8.56390625 -29.57484375 -8.81140625 -28.74609375 -9.06640625 C-18.14907211 -10.10026202 -8.21550776 -6.65539114 0 0 Z " fill="#7B7B7B" transform="translate(274.18359375,223.31640625)"/>
<path d="M0 0 C0 0.66 0 1.32 0 2 C-0.78246094 2.04898438 -1.56492188 2.09796875 -2.37109375 2.1484375 C-3.38300781 2.22320312 -4.39492187 2.29796875 -5.4375 2.375 C-6.44683594 2.44460937 -7.45617187 2.51421875 -8.49609375 2.5859375 C-9.32238281 2.72257813 -10.14867187 2.85921875 -11 3 C-11.33 3.66 -11.66 4.32 -12 5 C-13.31403276 5.70394612 -14.6520257 6.36345658 -16 7 C-18.72674269 8.59614206 -21.37027311 10.24684874 -24 12 C-24.66 11.34 -25.32 10.68 -26 10 C-18.3067801 3.52260232 -10.16469389 0 0 0 Z " fill="#959595" transform="translate(252,214)"/>
<path d="M0 0 C0.66 0.66 1.32 1.32 2 2 C0.35 4.97 -1.3 7.94 -3 11 C-6 7 -6 7 -6 4 C-4.7934375 3.566875 -4.7934375 3.566875 -3.5625 3.125 C-0.8673532 2.26737432 -0.8673532 2.26737432 0 0 Z " fill="#8B8A8A" transform="translate(391,330)"/>
<path d="M0 0 C0 3.57575896 -1.08840607 5.05295935 -3 8 C-3.99 7.67 -4.98 7.34 -6 7 C-4.60667426 3.63279613 -3.0210714 2.0140476 0 0 Z " fill="#919191" transform="translate(149,119)"/>
<path d="M0 0 C0.96661363 3.12180401 0.98988909 5.52083795 0.5625 8.75 C0.40974609 9.94882813 0.40974609 9.94882813 0.25390625 11.171875 C0.12822266 12.07679688 0.12822266 12.07679688 0 13 C-2 11 -2 11 -2.25 7.625 C-2.02515633 4.36476676 -1.7239511 2.69367359 0 0 Z " fill="#838080" transform="translate(217,242)"/>
<path d="M0 0 C3.55587991 5.33381987 2.92448054 8.83679637 2 15 C1.67 15 1.34 15 1 15 C0.67 10.05 0.34 5.1 0 0 Z " fill="#6F6D6E" transform="translate(300,240)"/>
<path d="M0 0 C0.99 0.33 1.98 0.66 3 1 C3 1.66 3 2.32 3 3 C1.1875 4.6875 1.1875 4.6875 -1 6 C-1.99 5.67 -2.98 5.34 -4 5 C-3.67 4.34 -3.34 3.68 -3 3 C-2.34 3 -1.68 3 -1 3 C-0.67 2.01 -0.34 1.02 0 0 Z " fill="#8B8B8B" transform="translate(126,140)"/>
<path d="M0 0 C1.5625 1.25 1.5625 1.25 3 3 C2.6875 5.1875 2.6875 5.1875 2 7 C1.01 7 0.02 7 -1 7 C-1.04254356 5.00045254 -1.04080783 2.99958364 -1 1 C-0.67 0.67 -0.34 0.34 0 0 Z " fill="#898989" transform="translate(218,288)"/>
<path d="M0 0 C0.99 0.33 1.98 0.66 3 1 C2 4 2 4 -1.0625 5.6875 C-2.031875 6.120625 -3.00125 6.55375 -4 7 C-2.92598892 4.08482708 -2.22189824 2.22189824 0 0 Z " fill="#969696" transform="translate(121,146)"/>
<path d="M0 0 C0.66 0 1.32 0 2 0 C1.01 3.3 0.02 6.6 -1 10 C-1.33 10 -1.66 10 -2 10 C-2.22036864 6.14354879 -1.60355101 3.50776784 0 0 Z " fill="#929091" transform="translate(405,300)"/>
<path d="M0 0 C0.66 0.99 1.32 1.98 2 3 C0.74458443 5.51083114 -0.50063488 5.87125446 -3 7 C-1.125 1.125 -1.125 1.125 0 0 Z " fill="#919191" transform="translate(221,230)"/>
<path d="M0 0 C1.32 0.66 2.64 1.32 4 2 C3.67 2.99 3.34 3.98 3 5 C0.9375 5.6875 0.9375 5.6875 -1 6 C-0.67 4.02 -0.34 2.04 0 0 Z " fill="#898989" transform="translate(171,193)"/>
<path d="M0 0 C0.33 0 0.66 0 1 0 C1.125 2.375 1.125 2.375 1 5 C0.34 5.66 -0.32 6.32 -1 7 C-1.99 6.67 -2.98 6.34 -4 6 C-2.69593116 3.98079663 -1.36176581 1.98075027 0 0 Z " fill="#969696" transform="translate(114,155)"/>
</svg>
