<?xml version="1.0" encoding="UTF-8"?>
<svg version="1.1" xmlns="http://www.w3.org/2000/svg" width="500" height="500">
<path d="M0 0 C0 0.66 0 1.32 0 2 C0.69480469 2.21398437 1.38960938 2.42796875 2.10546875 2.6484375 C5.782614 4.3654311 8.4180496 6.84882114 11.3125 9.625 C12.1636438 10.4281665 12.1636438 10.4281665 13.03198242 11.24755859 C14.69585128 12.82370607 16.34897003 14.41042276 18 16 C18.86625 16.825 19.7325 17.65 20.625 18.5 C24.65306761 22.41297997 24.65306761 22.41297997 26 24 C26 24.66 26 25.32 26 26 C26.66 26 27.32 26 28 26 C29.32519531 27.49365234 29.32519531 27.49365234 30.828125 29.5859375 C31.37774902 30.34672607 31.92737305 31.10751465 32.49365234 31.89135742 C33.36304443 33.1207605 33.36304443 33.1207605 34.25 34.375 C34.84119629 35.20555908 35.43239258 36.03611816 36.04150391 36.8918457 C50.21572207 56.94810927 59.24652813 78.93554864 64 103 C64.226875 104.11632812 64.45375 105.23265625 64.6875 106.3828125 C72.00409242 150.18074766 59.80907538 194.4451032 34.31640625 230.2109375 C30.50121172 235.39597932 26.3475949 240.25651003 22 245 C21.25991699 245.80800049 21.25991699 245.80800049 20.50488281 246.63232422 C-5.92294056 275.07811877 -44.53602067 294.64329228 -83.5703125 296.91015625 C-98.20942583 297.293641 -112.51058499 297.27857736 -127 295 C-128.155 294.84015625 -129.31 294.6803125 -130.5 294.515625 C-147.22145039 291.75359971 -164.22010663 285.241074 -179 277 C-180.33014583 276.32699606 -181.66240902 275.65808252 -183 275 C-183 274.34 -183 273.68 -183 273 C-183.81984375 272.85691406 -183.81984375 272.85691406 -184.65625 272.7109375 C-187.64241521 271.80513405 -189.88697757 270.32633603 -192.5 268.625 C-193.4384375 268.01914062 -194.376875 267.41328125 -195.34375 266.7890625 C-200.20922677 263.51202079 -200.20922677 263.51202079 -202 262 C-202 261.34 -202 260.68 -202 260 C-202.74169434 259.74436279 -203.48338867 259.48872559 -204.24755859 259.2253418 C-207.14430937 257.93575583 -208.7917932 256.60850156 -211.0390625 254.39453125 C-211.77914551 253.66580811 -212.51922852 252.93708496 -213.28173828 252.1862793 C-214.05501465 251.40293213 -214.82829102 250.61958496 -215.625 249.8125 C-216.82552002 248.60170776 -216.82552002 248.60170776 -218.05029297 247.36645508 C-224.83340819 240.4005121 -230.66439391 233.112604 -236 225 C-237.06927734 223.40478516 -237.06927734 223.40478516 -238.16015625 221.77734375 C-250.06803682 203.26162194 -257.76438056 182.53812483 -262 161 C-262.226875 159.86046875 -262.45375 158.7209375 -262.6875 157.546875 C-266.98163713 131.42420747 -263.52389954 105.13364136 -256 80 C-255.64292969 78.80117187 -255.28585938 77.60234375 -254.91796875 76.3671875 C-249.5305114 59.95733508 -240.48342471 45.37442809 -230.20361328 31.61767578 C-229.20289191 30.27269002 -228.2356503 28.9028722 -227.27734375 27.52734375 C-226.85582031 27.02332031 -226.43429688 26.51929688 -226 26 C-225.34 26 -224.68 26 -224 26 C-223.59164917 25.10595459 -223.59164917 25.10595459 -223.17504883 24.19384766 C-221.29320832 20.680401 -218.50090114 18.1623651 -215.6875 15.375 C-215.06230469 14.75471924 -214.43710938 14.13443848 -213.79296875 13.49536133 C-154.87171092 -43.97810854 -66.14275272 -44.09516848 0 0 Z M-186 46 C-190.11769419 51.96018786 -191.48042703 56.79359453 -191 64 C-189.84628931 68.07544556 -188.35213806 71.47179291 -186 75 C-185.34 75 -184.68 75 -184 75 C-184 75.66 -184 76.32 -184 77 C-178.76321619 81.69555197 -172.92951352 83.35589646 -166 83 C-157.72545071 81.6087041 -152.94084757 78.55997337 -147.625 72.125 C-144.60708102 66.29376673 -145.13304845 59.31732139 -146 53 C-148.44315067 46.39888348 -152.77699961 42.94511937 -158.94921875 39.875 C-168.73657463 35.69906149 -178.5769424 38.5769424 -186 46 Z M-85 109 C-86.8262482 111.70507866 -86.8262482 111.70507866 -88 114 C-88.99 114.495 -88.99 114.495 -90 115 C-90 109.72 -90 104.44 -90 99 C-101.55 99 -113.1 99 -125 99 C-125 136.62 -125 174.24 -125 213 C-113.45 213 -101.9 213 -90 213 C-89.95101562 208.57980469 -89.90203125 204.15960938 -89.8515625 199.60546875 C-89.80694151 196.05338793 -89.76045075 192.50134238 -89.71270752 188.94930267 C-89.66302236 185.21501709 -89.61653606 181.4807579 -89.578125 177.74633789 C-89.54091404 174.1411264 -89.49446398 170.5361358 -89.44193649 166.9311161 C-89.42358066 165.56424191 -89.40840547 164.19732071 -89.39665604 162.83037376 C-89.19592019 140.25807793 -89.19592019 140.25807793 -83 133 C-78.29094523 128.4217523 -72.99575832 126.38127833 -66.5625 125.5625 C-61.94839251 126.12914478 -57.97657819 127.57841776 -54 130 C-53.34 130.99 -52.68 131.98 -52 133 C-51.34 133 -50.68 133 -50 133 C-49.68680856 134.39567835 -49.37448212 135.79155082 -49.0625 137.1875 C-48.80146484 138.35345703 -48.80146484 138.35345703 -48.53515625 139.54296875 C-48.27025391 140.75919922 -48.27025391 140.75919922 -48 142 C-47.82819717 142.73901047 -47.65639435 143.47802094 -47.47938538 144.23942566 C-46.92967451 147.40497426 -46.83768502 150.41296178 -46.79467773 153.6262207 C-46.78477814 154.27068649 -46.77487854 154.91515228 -46.76467896 155.57914734 C-46.73326613 157.69465549 -46.70838721 159.81018605 -46.68359375 161.92578125 C-46.66300672 163.39837708 -46.6420098 164.87096724 -46.62062073 166.34355164 C-46.56558057 170.20845933 -46.51609214 174.07341874 -46.46777344 177.93841553 C-46.40856499 182.58162306 -46.34243693 187.22473662 -46.27747345 191.86786652 C-46.17969129 198.91185333 -46.09067998 205.95590205 -46 213 C-34.45 213 -22.9 213 -11 213 C-10.94173068 199.42969571 -10.94173068 199.42969571 -10.90234375 185.859375 C-10.89043514 180.3163668 -10.87641903 174.77342531 -10.84912109 169.23046875 C-10.82722837 164.75654626 -10.81539708 160.28269542 -10.81024551 155.80872345 C-10.80657902 154.11048507 -10.7994202 152.41225015 -10.78853989 150.71404266 C-10.69570532 135.6096932 -11.85177979 122.61565755 -19 109 C-19.66 109 -20.32 109 -21 109 C-21.22171875 108.41476563 -21.4434375 107.82953125 -21.671875 107.2265625 C-23.40820408 104.31565786 -25.37957719 103.15528956 -28.25 101.375 C-29.18328125 100.78460938 -30.1165625 100.19421875 -31.078125 99.5859375 C-48.93835082 89.89175076 -71.33348549 94.5760642 -85 109 Z M-185 99 C-185 136.62 -185 174.24 -185 213 C-173.45 213 -161.9 213 -150 213 C-150 175.38 -150 137.76 -150 99 C-161.55 99 -173.1 99 -185 99 Z " fill="#7A7B7B" transform="translate(349,117)"/>
<path d="M0 0 C1.32 0 2.64 0 4 0 C4.33 1.32 4.66 2.64 5 4 C5.99 3.67 6.98 3.34 8 3 C8 3.99 8 4.98 8 6 C5 7 5 7 1.8125 5.5625 C0.884375 5.046875 -0.04375 4.53125 -1 4 C-0.67 2.68 -0.34 1.36 0 0 Z " fill="#8C8C8C" transform="translate(189,153)"/>
<path d="M0 0 C0.33 1.32 0.66 2.64 1 4 C0.01 4.495 0.01 4.495 -1 5 C-1.474375 5.804375 -1.94875 6.60875 -2.4375 7.4375 C-4 10 -4 10 -7 12 C-6.4739075 8.21213403 -5.61896089 5.82847776 -3 3 C-2.34 3 -1.68 3 -1 3 C-0.67 2.01 -0.34 1.02 0 0 Z " fill="#969595" transform="translate(126,140)"/>
<path d="M0 0 C0.33 1.98 0.66 3.96 1 6 C-2.93673644 4.68775452 -5.22719294 3.08089673 -8 0 C-4.71303767 -0.79953138 -3.28976808 -1.09658936 0 0 Z " fill="#929192" transform="translate(159,381)"/>
<path d="M0 0 C0.99 0 1.98 0 3 0 C1.60667426 3.36720387 0.0210714 4.9859524 -3 7 C-2.38722388 4.03824877 -1.74627478 2.61941217 0 0 Z " fill="#9A999A" transform="translate(361,367)"/>
<path d="M0 0 C1.32 1.32 2.64 2.64 4 4 C2.02 4.99 2.02 4.99 0 6 C-0.66 5.34 -1.32 4.68 -2 4 C-1.34 2.68 -0.68 1.36 0 0 Z " fill="#818080" transform="translate(334,385)"/>
<path d="M0 0 C0.99 0 1.98 0 3 0 C3.33 1.98 3.66 3.96 4 6 C3.34 6 2.68 6 2 6 C2 5.34 2 4.68 2 4 C1.01 3.67 0.02 3.34 -1 3 C-0.67 2.01 -0.34 1.02 0 0 Z " fill="#8E8A8B" transform="translate(145,373)"/>
<path d="M0 0 C0.99 0.33 1.98 0.66 3 1 C3.33 2.98 3.66 4.96 4 7 C3.01 7.495 3.01 7.495 2 8 C0.23537317 4.91190305 0 3.76687864 0 0 Z " fill="#949394" transform="translate(98,311)"/>
<path d="M0 0 C0.66 1.32 1.32 2.64 2 4 C1.01 5.485 1.01 5.485 0 7 C-0.99 7 -1.98 7 -3 7 C-1.125 2.25 -1.125 2.25 0 0 Z " fill="#989397" transform="translate(106,168)"/>
<path d="M0 0 C0.99 0.66 1.98 1.32 3 2 C2.67 2.99 2.34 3.98 2 5 C0.35 4.67 -1.3 4.34 -3 4 C-2.01 2.68 -1.02 1.36 0 0 Z " fill="#8A8A8A" transform="translate(130,136)"/>
</svg>
