<?xml version="1.0" encoding="UTF-8"?>
<svg version="1.1" xmlns="http://www.w3.org/2000/svg" width="512" height="512">
<path d="M0 0 C168.96 0 337.92 0 512 0 C512 168.96 512 337.92 512 512 C343.04 512 174.08 512 0 512 C0 343.04 0 174.08 0 0 Z " fill="#0078B5" transform="translate(0,0)"/>
<path d="M0 0 C19.79052424 16.87750322 27.86174509 42.55820126 29.97825623 67.77201843 C30.55459857 75.5121291 30.58272489 83.23193127 30.56274414 90.98754883 C30.56246135 92.54609678 30.5626218 94.10464487 30.56318665 95.66319275 C30.56347102 99.85238392 30.55763298 104.04154586 30.55061269 108.2307303 C30.54431874 112.6242522 30.54377061 117.01777494 30.54258728 121.41130066 C30.53949165 129.71237685 30.53130233 138.0134397 30.52123779 146.31451005 C30.50792005 157.54495694 30.50256245 168.77540752 30.49673557 180.00586033 C30.48736107 197.67318768 30.4674304 215.34048692 30.44921875 233.0078125 C5.36921875 233.0078125 -19.71078125 233.0078125 -45.55078125 233.0078125 C-45.58816406 222.77523437 -45.62554687 212.54265625 -45.6640625 202 C-45.6943533 195.50128876 -45.72538823 189.00259504 -45.75976562 182.50390625 C-45.8141431 172.19842148 -45.86556061 161.89298531 -45.8972168 151.58740234 C-45.92029131 144.0801235 -45.95379359 136.57297346 -45.99948281 129.06579697 C-46.02328845 125.09592772 -46.04209967 121.12618503 -46.04839516 117.15624619 C-46.05450396 113.40839218 -46.07470855 109.66086148 -46.10505676 105.9131279 C-46.11784216 103.90483124 -46.11628303 101.89645868 -46.11405945 99.88812256 C-46.26469228 85.10033443 -48.71816566 68.98422388 -59.55078125 58.0078125 C-70.65266603 50.02580045 -83.40630123 49.95308993 -96.55078125 51.0078125 C-106.39610365 52.92248293 -114.48134357 58.49032905 -120.17578125 66.70703125 C-131.13984678 85.05315227 -130.02176353 106.38276828 -130.05689216 126.99193692 C-130.06638962 130.730196 -130.09260028 134.46834081 -130.11689758 138.20652771 C-130.16025799 145.25725752 -130.18899061 152.30796477 -130.21222097 159.35878652 C-130.24454531 168.90637756 -130.29996724 178.45383431 -130.35396671 188.00132275 C-130.43821887 203.00344557 -130.49204404 218.00551778 -130.55078125 233.0078125 C-155.30078125 233.0078125 -180.05078125 233.0078125 -205.55078125 233.0078125 C-205.55078125 152.4878125 -205.55078125 71.9678125 -205.55078125 -10.9921875 C-181.79078125 -10.9921875 -158.03078125 -10.9921875 -133.55078125 -10.9921875 C-133.55078125 -0.1021875 -133.55078125 10.7878125 -133.55078125 22.0078125 C-132.89078125 22.0078125 -132.23078125 22.0078125 -131.55078125 22.0078125 C-131.29425781 21.28207031 -131.03773438 20.55632812 -130.7734375 19.80859375 C-124.40006929 5.20889725 -108.5275507 -5.18138114 -94.38671875 -11.37890625 C-91.79290338 -12.33997558 -89.20038256 -13.19994791 -86.55078125 -13.9921875 C-85.35453125 -14.3840625 -84.15828125 -14.7759375 -82.92578125 -15.1796875 C-55.74259028 -21.72378903 -22.30528509 -17.42066677 0 0 Z " fill="#FEFEFE" transform="translate(405.55078125,202.9921875)"/>
<path d="M0 0 C25.08 0 50.16 0 76 0 C76 80.52 76 161.04 76 244 C50.92 244 25.84 244 0 244 C0 163.48 0 82.96 0 0 Z " fill="#FEFEFE" transform="translate(76,192)"/>
<path d="M0 0 C1.32608276 0.01135986 1.32608276 0.01135986 2.67895508 0.02294922 C9.19927095 0.18783769 14.45934993 1.03810996 20.125 4.4375 C20.88683594 4.86160156 21.64867187 5.28570312 22.43359375 5.72265625 C34.02871881 12.74230195 40.92347666 23.42169988 44.125 36.4375 C45.44691726 48.80786259 43.31773032 60.20162587 35.8125 70.375 C34.6178765 71.75973563 33.38882894 73.11562464 32.125 74.4375 C31.51785156 75.07300781 30.91070312 75.70851563 30.28515625 76.36328125 C20.27033834 85.92753475 9.10934984 87.83611565 -4.125 87.64453125 C-14.27500976 87.32190028 -21.03215297 83.75682101 -28.875 77.4375 C-29.514375 76.93605469 -30.15375 76.43460937 -30.8125 75.91796875 C-37.8060105 69.75181552 -42.88675002 59.65714917 -43.875 50.4375 C-44.74811115 36.26623442 -42.20000006 25.26149796 -33.0234375 14.20703125 C-28.56341743 9.47159161 -23.8077531 6.09409672 -17.875 3.4375 C-17.02591064 3.04800171 -17.02591064 3.04800171 -16.15966797 2.65063477 C-10.7341067 0.3606428 -5.85243374 -0.07011568 0 0 Z " fill="#FDFEFE" transform="translate(113.875,70.5625)"/>
</svg>
