<?xml version="1.0" encoding="UTF-8"?>
<svg version="1.1" xmlns="http://www.w3.org/2000/svg" width="500" height="500">
<path d="M0 0 C0.67756348 0.13390137 1.35512695 0.26780273 2.05322266 0.40576172 C18.2831946 3.73074976 34.80765085 9.39691576 49 18 C50.32688855 18.67940342 51.65827542 19.35038674 53 20 C53 20.66 53 21.32 53 22 C53.52722656 22.07605469 54.05445313 22.15210937 54.59765625 22.23046875 C57.9654784 23.30926707 60.60139586 25.26120015 63.4375 27.3125 C64.35523193 27.97258057 64.35523193 27.97258057 65.29150391 28.64599609 C72.00938695 33.5855652 78.02423205 39.20185139 84 45 C84.85464844 45.8146875 85.70929688 46.629375 86.58984375 47.46875 C90.64152189 51.39937624 90.64152189 51.39937624 92 53 C92 53.66 92 54.32 92 55 C92.66 55 93.32 55 94 55 C99.83294491 61.71635773 104.61367305 69.3166375 109.1640625 76.93359375 C110.26981953 78.78044326 111.40268968 80.6119693 112.5859375 82.41015625 C120.1626307 94.09590264 124.94595695 108.49038815 128 122 C128.18191895 122.7945459 128.36383789 123.5890918 128.55126953 124.40771484 C135.32300328 155.30124573 133.692893 187.22824252 123 217 C122.66379639 217.94431885 122.66379639 217.94431885 122.32080078 218.90771484 C118.8390944 228.55182037 114.32670616 237.25497453 109 246 C108.46890625 246.91007813 107.9378125 247.82015625 107.390625 248.7578125 C98.00678435 264.32012249 84.78664672 280.27447456 70 291 C69.34 291 68.68 291 68 291 C68 291.66 68 292.32 68 293 C65.78189024 294.65752191 63.5712277 296.18628487 61.25 297.6875 C60.56043213 298.13665771 59.87086426 298.58581543 59.16040039 299.04858398 C57.75776677 299.95645689 56.35225038 300.85989194 54.94384766 301.75878906 C53.32342347 302.79348343 51.71312913 303.84402057 50.10546875 304.8984375 C17.72255005 325.09627552 -23.7964478 330.64054535 -61 324 C-62.26585937 323.78214844 -63.53171875 323.56429688 -64.8359375 323.33984375 C-82.0768538 320.13995766 -97.46021655 313.98052132 -113 306 C-114.33244385 305.33155733 -115.66541 304.66414738 -117 304 C-117 303.34 -117 302.68 -117 302 C-117.81984375 301.85691406 -117.81984375 301.85691406 -118.65625 301.7109375 C-121.64241521 300.80513405 -123.88697757 299.32633603 -126.5 297.625 C-127.4384375 297.01914062 -128.376875 296.41328125 -129.34375 295.7890625 C-134.20922677 292.51202079 -134.20922677 292.51202079 -136 291 C-136 290.34 -136 289.68 -136 289 C-136.74169434 288.74436279 -137.48338867 288.48872559 -138.24755859 288.2253418 C-141.14430937 286.93575583 -142.7917932 285.60850156 -145.0390625 283.39453125 C-145.77914551 282.66580811 -146.51922852 281.93708496 -147.28173828 281.1862793 C-148.05501465 280.40293213 -148.82829102 279.61958496 -149.625 278.8125 C-150.82552002 277.60170776 -150.82552002 277.60170776 -152.05029297 276.36645508 C-158.83340819 269.4005121 -164.66439391 262.112604 -170 254 C-171.06927734 252.40478516 -171.06927734 252.40478516 -172.16015625 250.77734375 C-195.36297468 214.69897289 -203.64267405 170.64358347 -195.26171875 128.58984375 C-190.89042625 108.53597609 -183.56984089 90.54238299 -173 73 C-172.48953125 72.12601562 -171.9790625 71.25203125 -171.453125 70.3515625 C-170.3655698 68.52830819 -169.19377141 66.75554619 -168 65 C-167.34 65 -166.68 65 -166 65 C-165.7525 64.278125 -165.505 63.55625 -165.25 62.8125 C-163.87730408 59.72393418 -162.27646704 57.48988582 -160 55 C-159.34 55 -158.68 55 -158 55 C-157.7313916 54.40687012 -157.4627832 53.81374023 -157.18603516 53.20263672 C-155.99479783 50.99033882 -154.78886293 49.53082184 -153.0234375 47.7578125 C-152.43852539 47.16887207 -151.85361328 46.57993164 -151.25097656 45.97314453 C-150.6319043 45.36325684 -150.01283203 44.75336914 -149.375 44.125 C-148.74561523 43.50093262 -148.11623047 42.87686523 -147.46777344 42.23388672 C-136.00076955 31 -136.00076955 31 -132 31 C-132 30.34 -132 29.68 -132 29 C-130.05078125 27.5546875 -130.05078125 27.5546875 -127.3125 25.875 C-126.30058594 25.25367187 -125.28867188 24.63234375 -124.24609375 23.9921875 C-123.17488281 23.33476563 -122.10367188 22.67734375 -121 22 C-120.00097656 21.34257813 -119.00195312 20.68515625 -117.97265625 20.0078125 C-84.00446985 -2.00939785 -39.18893655 -7.9170439 0 0 Z M-113 91 C-113 91.66 -113 92.32 -113 93 C-113.66 93 -114.32 93 -115 93 C-116.50135842 95.01200375 -117.85603586 97.00340565 -119.1875 99.125 C-119.58606201 99.75591553 -119.98462402 100.38683105 -120.39526367 101.03686523 C-134.97856041 124.51291355 -141.50331365 151.79655695 -135.81860352 179.29736328 C-133.75549101 187.7667735 -131.29032766 197.17729752 -126.34765625 204.421875 C-124.06541249 208.78790653 -124.61142059 212.57979385 -125.8828125 217.2265625 C-126.49769531 218.90878906 -126.49769531 218.90878906 -127.125 220.625 C-130.25419442 229.47952006 -132.76791529 238.48708401 -135.30224609 247.52636719 C-135.94780351 249.81495631 -136.6050612 252.09965329 -137.26953125 254.3828125 C-137.81673828 256.26613281 -137.81673828 256.26613281 -138.375 258.1875 C-138.69210938 259.27417969 -139.00921875 260.36085938 -139.3359375 261.48046875 C-140.08495408 263.88806343 -140.08495408 263.88806343 -140 266 C-134.94930966 265.03594934 -130.06455011 263.66596903 -125.125 262.25 C-124.19042969 261.98268066 -123.25585938 261.71536133 -122.29296875 261.43994141 C-113.24401272 258.82548823 -104.33735202 255.84934566 -95.4375 252.765625 C-87.76791166 250.22071614 -82.62967253 249.10617995 -75.1875 252.8125 C-74.17236328 253.34617187 -74.17236328 253.34617187 -73.13671875 253.890625 C-51.40045336 265.17599862 -23.04280424 265.22442448 0 258 C1.14082031 257.649375 2.28164063 257.29875 3.45703125 256.9375 C12.20952207 253.88947418 20.42758577 249.33106341 28 244 C28 243.34 28 242.68 28 242 C28.73863281 241.75378906 29.47726562 241.50757813 30.23828125 241.25390625 C33.2808017 239.87250729 34.91285767 238.36173196 37.1875 235.9375 C40.83190395 232.08404803 40.83190395 232.08404803 43 231 C43 230.34 43 229.68 43 229 C43.66 229 44.32 229 45 229 C47.11666511 226.69841698 48.83359886 224.05902644 50.625 221.5 C51.16189453 220.73405518 51.69878906 219.96811035 52.25195312 219.17895508 C59.68231582 208.34375104 65.58392535 196.73417928 69 184 C69.53367187 182.1128125 69.53367187 182.1128125 70.078125 180.1875 C71.46742735 173.75913519 71.37203825 167.21926535 71.37060547 160.67358398 C71.37494433 158.46582798 71.41125789 156.26013389 71.44921875 154.05273438 C71.57021802 138.81394964 68.04023818 125.60526028 61 112 C60.525625 111.05511719 60.05125 110.11023438 59.5625 109.13671875 C47.5887604 86.13282229 26.97411935 67.24117332 2.15625 58.9453125 C1.1146875 58.63335937 0.073125 58.32140625 -1 58 C-2.2478125 57.62617188 -3.495625 57.25234375 -4.78125 56.8671875 C-44.35716183 46.09186608 -86.31213048 60.375525 -113 91 Z " fill="#7C7C7C" transform="translate(283,88)"/>
<path d="M0 0 C1.155 0.31839844 2.31 0.63679687 3.5 0.96484375 C25.79874419 7.75042472 43.99622686 22.07884511 55.65625 42.38671875 C66.04058703 62.58183932 70.14398441 87.08810893 63.33105469 109.16796875 C60.06518148 119.24082548 56.32077025 128.41766976 50 137 C49.43796875 137.804375 48.8759375 138.60875 48.296875 139.4375 C45.40060932 143.48664813 45.40060932 143.48664813 44 145 C43.34 145 42.68 145 42 145 C42 145.66 42 146.32 42 147 C41.34 147 40.68 147 40 147 C40 147.66 40 148.32 40 149 C39.34 149 38.68 149 38 149 C38 149.66 38 150.32 38 151 C37.34 151 36.68 151 36 151 C36 151.66 36 152.32 36 153 C33.76228557 154.7062195 31.53769141 156.27459192 29.1875 157.8125 C28.49970459 158.26318848 27.81190918 158.71387695 27.10327148 159.17822266 C21.60327469 162.71929015 16.18180104 165.7940113 10 168 C8.91589844 168.39058594 7.83179688 168.78117188 6.71484375 169.18359375 C-2.07676499 171.85528137 -10.51284926 172.38408594 -19.6875 172.4375 C-20.80318359 172.4475708 -21.91886719 172.4576416 -23.06835938 172.46801758 C-37.24082295 172.32099599 -51.91912745 168.56138661 -64.375 161.6875 C-72.48039009 157.91430116 -79.70793551 160.84663095 -87.75 163.5 C-89.78483757 164.16125838 -91.82124288 164.81771692 -93.859375 165.46875 C-94.75108398 165.76201172 -95.64279297 166.05527344 -96.56152344 166.35742188 C-99 167 -99 167 -103 167 C-102.26406298 159.11226471 -100.14325542 151.74244252 -97.99609375 144.13671875 C-97.72667969 143.14800781 -97.45726562 142.15929687 -97.1796875 141.140625 C-96.92944824 140.24891602 -96.67920898 139.35720703 -96.42138672 138.43847656 C-95.61975783 133.79961833 -97.59042592 130.71165479 -99.75 126.6875 C-110.63694318 105.07063685 -112.95383317 81.34135913 -106 58 C-102.3332253 47.46065692 -97.20667352 37.571685 -90 29 C-89.34 29 -88.68 29 -88 29 C-87.76152344 28.42894531 -87.52304688 27.85789063 -87.27734375 27.26953125 C-79.46198664 13.38352977 -59.07586435 4.94766998 -44.625 0.6875 C-30.70077429 -3.1767172 -14.02460259 -3.89345799 0 0 Z M-70.5859375 45.328125 C-75.20746054 53.39575482 -76.05762482 60.38089481 -73.8125 69.4375 C-70.5700563 80.2952243 -63.65107943 89.00272975 -57 98 C-56.29617187 98.95648438 -55.59234375 99.91296875 -54.8671875 100.8984375 C-52.53775716 104.03651489 -52.53775716 104.03651489 -50 107 C-49.34 107 -48.68 107 -48 107 C-48 107.66 -48 108.32 -48 109 C-47.34 109 -46.68 109 -46 109 C-46 109.66 -46 110.32 -46 111 C-31.29595335 123.71354252 -9.09424851 136.24075932 11 135 C18.2092911 133.29309431 25.08802745 129.51259323 29.1796875 123.171875 C30.21787846 120.42314084 30.19475367 118.17965428 30.125 115.25 C30.10695313 114.26515625 30.08890625 113.2803125 30.0703125 112.265625 C30.04710937 111.51796875 30.02390625 110.7703125 30 110 C24.42559642 107.13678362 18.80919195 104.59582621 13 102.25 C12.22527344 101.93417969 11.45054687 101.61835938 10.65234375 101.29296875 C8.7693729 100.52583248 6.88485002 99.76250751 5 99 C2.95880212 100.61594832 0.95927063 102.2856382 -1 104 C-1 104.66 -1 105.32 -1 106 C-1.66 106 -2.32 106 -3 106 C-3 106.66 -3 107.32 -3 108 C-3.66 108 -4.32 108 -5 108 C-5 108.66 -5 109.32 -5 110 C-5.66 110 -6.32 110 -7 110 C-7 110.66 -7 111.32 -7 112 C-13.46301154 111.5965121 -17.55657537 110.03457395 -22.9375 106.5 C-23.63625244 106.04858643 -24.33500488 105.59717285 -25.05493164 105.13208008 C-34.97081827 98.55489909 -43.50912274 89.65064634 -49 79 C-48.94391156 74.80583087 -47.27143837 72.77239118 -44.4375 69.8125 C-41.73514621 67.32010155 -41.73514621 67.32010155 -41 64 C-40.34 64 -39.68 64 -39 64 C-39.94579265 58.57537108 -41.98715962 53.89508917 -44.1875 48.875 C-44.74920898 47.51568359 -44.74920898 47.51568359 -45.32226562 46.12890625 C-47.16810511 41.92674217 -48.23053442 39.51233503 -52.12109375 36.921875 C-60.82133463 34.13590913 -65.6855758 38.13449058 -70.5859375 45.328125 Z " fill="#7C7C7C" transform="translate(272,161)"/>
<path d="M0 0 C-0.66 3.63 -1.32 7.26 -2 11 C-4.71843438 7.37542083 -5.41789544 6.19115285 -6 2 C-2.25 0 -2.25 0 0 0 Z " fill="#8B898A" transform="translate(103,308)"/>
<path d="M0 0 C0.33 0 0.66 0 1 0 C1.3125 2.6875 1.3125 2.6875 1 6 C-1.5 8.875 -1.5 8.875 -4 11 C-4.33 10.34 -4.66 9.68 -5 9 C-4.00390625 6.8359375 -4.00390625 6.8359375 -2.5625 4.375 C-2.08941406 3.55773437 -1.61632812 2.74046875 -1.12890625 1.8984375 C-0.75636719 1.27195313 -0.38382813 0.64546875 0 0 Z " fill="#9B9B9B" transform="translate(174,202)"/>
<path d="M0 0 C0.99 0.99 1.98 1.98 3 3 C0.36 5.31 -2.28 7.62 -5 10 C-5.66 9.34 -6.32 8.68 -7 8 C-5.71034824 6.62437146 -4.37310707 5.29233607 -3 4 C-2.34 4 -1.68 4 -1 4 C-0.67 2.68 -0.34 1.36 0 0 Z " fill="#8F8F8F" transform="translate(182,163)"/>
<path d="M0 0 C0.66 0 1.32 0 2 0 C2 0.99 2 1.98 2 3 C2.66 3 3.32 3 4 3 C3.34 4.32 2.68 5.64 2 7 C0.35 7 -1.3 7 -3 7 C-1.125 2.25 -1.125 2.25 0 0 Z " fill="#8E8C8D" transform="translate(115,153)"/>
<path d="M0 0 C1.9375 0.8125 1.9375 0.8125 4 2 C4.33 2.99 4.66 3.98 5 5 C5.66 5.33 6.32 5.66 7 6 C5.68 6 4.36 6 3 6 C0 2.78571429 0 2.78571429 0 0 Z " fill="#8B8B8B" transform="translate(217,263)"/>
<path d="M0 0 C-2 2 -2 2 -5 2.25 C-8 2 -8 2 -10 0 C-6.30581799 -1.231394 -3.7943739 -0.64432764 0 0 Z " fill="#9A9A9A" transform="translate(204,338)"/>
<path d="M0 0 C0.66 0.99 1.32 1.98 2 3 C0.71034824 4.37562854 -0.62689293 5.70766393 -2 7 C-2.66 7 -3.32 7 -4 7 C-2.92598892 4.08482708 -2.22189824 2.22189824 0 0 Z " fill="#989898" transform="translate(121,146)"/>
<path d="M0 0 C0.99 0 1.98 0 3 0 C2.67 1.65 2.34 3.3 2 5 C0.35 5 -1.3 5 -3 5 C-2.67 4.01 -2.34 3.02 -2 2 C-1.34 2 -0.68 2 0 2 C0 1.34 0 0.68 0 0 Z " fill="#888888" transform="translate(311,330)"/>
<path d="M0 0 C0.66 0 1.32 0 2 0 C2 0.66 2 1.32 2 2 C2.66 2 3.32 2 4 2 C4 2.66 4 3.32 4 4 C4.66 4.33 5.32 4.66 6 5 C5.67 5.99 5.34 6.98 5 8 C2.74754119 5.31158141 1.11786042 3.35358125 0 0 Z " fill="#979797" transform="translate(104,326)"/>
<path d="M0 0 C0.33 0.66 0.66 1.32 1 2 C0.67 2.66 0.34 3.32 0 4 C0.99 4.33 1.98 4.66 3 5 C1.35 5.33 -0.3 5.66 -2 6 C-2 4.35 -2 2.7 -2 1 C-1.34 0.67 -0.68 0.34 0 0 Z " fill="#898989" transform="translate(171,322)"/>
<path d="M0 0 C1.41687119 4.25061356 0.19320039 6.71851625 -1 11 C-2.125 9.3125 -2.125 9.3125 -3 7 C-2.22283171 4.48914859 -1.17153984 2.34307967 0 0 Z " fill="#9C9C9C" transform="translate(153,314)"/>
<path d="M0 0 C-0.33 0.99 -0.66 1.98 -1 3 C-3.5625 4.1875 -3.5625 4.1875 -6 5 C-6.33 4.01 -6.66 3.02 -7 2 C-2.25 0 -2.25 0 0 0 Z " fill="#909090" transform="translate(305,314)"/>
<path d="M0 0 C0.66 0.33 1.32 0.66 2 1 C-0.35380297 4.92300495 -2.64464931 5.83857315 -7 7 C-5.37660195 5.29115995 -3.70680947 3.62553283 -2 2 C-1.34 2 -0.68 2 0 2 C0 1.34 0 0.68 0 0 Z " fill="#999999" transform="translate(151,117)"/>
</svg>
